<svg xmlns="http://www.w3.org/2000/svg" viewBox="0 0 1200 630" role="img" aria-label="MonTerminal documentation">
  <defs><linearGradient id="bg" x1="0" y1="0" x2="1" y2="1"><stop stop-color="#171924"/><stop offset="1" stop-color="#090a0f"/></linearGradient><radialGradient id="glow"><stop stop-color="#7c6ff0" stop-opacity=".42"/><stop offset="1" stop-color="#7c6ff0" stop-opacity="0"/></radialGradient></defs>
  <rect width="1200" height="630" fill="url(#bg)"/><circle cx="970" cy="90" r="360" fill="url(#glow)"/><rect x="70" y="68" width="1060" height="494" rx="28" fill="#11131a" stroke="#303443"/>
  <g transform="translate(112 112) scale(.8)"><path fill="#f8f8fa" d="m142 31.1c-.4-.1-.8-.1-1.1-.1H75.8c-2.1 0-4.2.8-6 2.1l-8.6 6.9c-.4.4 0 .8.4.8H114c4.3-.1 8.1 3 8.1 7.5v57.1c0 .5.7.8.9.1l24-66.8c.6-3.1-.8-6.9-5-7.6Z"/><path fill="#f8f8fa" d="M111.5 44.8h-65c-3.9 0-8.1 2.9-9.6 7.2l-20.4 65.6c-1 3.5 1.1 8.8 6.8 8.7H109c4.8.1 9.2-3.8 9.2-8.7l-.1-66.4c0-3.5-2.5-6.4-6.6-6.4Z"/><path fill="#7c6ff0" d="m38.4 92.8 14.7-8.8c.3-.2.3-.4.1-.5l-9.6-7.2c-.5-.4-.7-1-.1-2.7l1-3.4c.5-.9 1.6-1.6 2.7-.7L62 80.8c.7.5.7 1.4.5 2.1l-.8 2.7c-.1.5-.5 1-.9 1.2L38.3 99.7c-1.1.7-2.8.1-2.4-1.3l1.5-4.6c.2-.4.5-.8 1-1Z"/><path fill="#7c6ff0" d="m61.4 101.4-1 3.3c-.3 1 .4 1.7 1.3 1.7h23.4c.9 0 1.7-.5 1.9-1.2l1-3.7c.2-.8-.2-1.7-1.1-1.7H63c-.9 0-1.5.7-1.8 1.3l.2.3Z"/></g>
  <text x="250" y="166" fill="#f4f5f8" font-family="system-ui" font-size="34" font-weight="800">MonTerminal Documentation</text><text x="112" y="286" fill="#f4f5f8" font-family="system-ui" font-size="62" font-weight="820" letter-spacing="-2">Understand it.</text><text x="112" y="356" fill="#9faaf0" font-family="system-ui" font-size="62" font-weight="820" letter-spacing="-2">Verify it onchain.</text><text x="112" y="430" fill="#aeb2c0" font-family="system-ui" font-size="24">Users · Solidity contracts · APIs · Keeper · AI-agent proof</text><rect x="112" y="478" width="350" height="48" rx="24" fill="#7c6ff0"/><text x="287" y="509" text-anchor="middle" fill="white" font-family="system-ui" font-size="17" font-weight="750">Monad Mainnet · Chain ID 143</text>
</svg>
