<svg xmlns="http://www.w3.org/2000/svg" viewBox="0 0 960 540" role="img" aria-label="Terminal tutorial video placeholder">
  <defs><linearGradient id="bg" x1="0" y1="0" x2="1" y2="1"><stop stop-color="#171924"/><stop offset="1" stop-color="#0b0c11"/></linearGradient><linearGradient id="line" x1="0" y1="0" x2="1" y2="0"><stop stop-color="#77c7af"/><stop offset="1" stop-color="#9faaf0"/></linearGradient></defs>
  <rect width="960" height="540" rx="22" fill="url(#bg)"/><rect x="22" y="22" width="916" height="42" rx="9" fill="#20232f"/><circle cx="43" cy="43" r="6" fill="#7c6ff0"/><text x="61" y="49" fill="#f4f5f8" font-family="system-ui" font-size="17" font-weight="700">MonTerminal · CHOG / WMON</text>
  <rect x="22" y="80" width="665" height="300" rx="12" fill="#11131a" stroke="#2a2d39"/><path d="M48 318 C112 302 129 244 190 264 S282 189 342 217 S440 133 505 176 S583 108 660 129" fill="none" stroke="url(#line)" stroke-width="5"/><path d="M48 318 C112 302 129 244 190 264 S282 189 342 217 S440 133 505 176 S583 108 660 129 V355 H48Z" fill="#7c6ff0" opacity=".08"/>
  <rect x="704" y="80" width="234" height="300" rx="12" fill="#151720" stroke="#2a2d39"/><text x="726" y="111" fill="#f4f5f8" font-family="system-ui" font-size="15" font-weight="700">Limit order</text><rect x="726" y="132" width="190" height="38" rx="7" fill="#0d0f15"/><text x="740" y="156" fill="#aeb2c0" font-family="system-ui" font-size="12">Trigger price</text><rect x="726" y="181" width="190" height="38" rx="7" fill="#0d0f15"/><text x="740" y="205" fill="#aeb2c0" font-family="system-ui" font-size="12">Amount · exact approval</text><rect x="726" y="236" width="190" height="46" rx="8" fill="#7c6ff0"/><text x="821" y="264" text-anchor="middle" fill="white" font-family="system-ui" font-size="14" font-weight="700">Place order</text><rect x="726" y="297" width="190" height="56" rx="8" fill="#0d0f15" stroke="#303444"/><text x="740" y="320" fill="#77c7af" font-family="system-ui" font-size="12" font-weight="700">Wallet-backed</text><text x="740" y="340" fill="#7b8090" font-family="system-ui" font-size="11">Tokens stay in wallet</text>
  <rect x="22" y="397" width="916" height="121" rx="12" fill="#11131a" stroke="#2a2d39"/><text x="45" y="428" fill="#9faaf0" font-family="system-ui" font-size="13" font-weight="700">TUTORIAL 1 · TERMINAL</text><text x="45" y="462" fill="#f4f5f8" font-family="system-ui" font-size="24" font-weight="750">Video placeholder</text><text x="45" y="490" fill="#aeb2c0" font-family="system-ui" font-size="14">Discover → chart → trade → approve → place → verify</text><circle cx="875" cy="457" r="27" fill="#7c6ff0"/><path d="m868 444 20 13-20 13Z" fill="white"/>
</svg>
