<svg xmlns="http://www.w3.org/2000/svg" version="1.1" xmlns:xlink="http://www.w3.org/1999/xlink" width="1000" height="1000"><metadata><rdf:RDF xmlns:rdf="http://www.w3.org/1999/02/22-rdf-syntax-ns#" xmlns:dc="http://purl.org/dc/elements/1.1/"><rdf:Description><dc:creator>RealFaviconGenerator</dc:creator><dc:source>https://realfavicongenerator.net</dc:source></rdf:Description></rdf:RDF></metadata><g clip-path="url(#SvgjsClipPath1179)"><rect width="1000" height="1000" fill="#ffffff"></rect><g transform="matrix(6.25,0,0,6.25,0,0)"><svg xmlns="http://www.w3.org/2000/svg" viewBox="0 0 160 160" width="160" height="160"><style type="text/css">.cls-0 {fill:url(#SVGID_1_);}
.cls-1 {fill:#FCFCFD;}
.cls-2 {fill:#5F27E8;}</style><linearGradient id="SVGID_1_" x1="15" x2="145" y1="-3.312" y2="163.3" gradientUnits="userSpaceOnUse">
    <stop stop-color="#7C2AFF" offset="0"></stop>
    <stop stop-color="#4322DE" offset="1"></stop>
  </linearGradient><rect class="cls-0" width="160" height="160"></rect><path class="cls-1" d="m142 31.1c-0.4-0.1-0.8-0.1-1.1-0.1h-65.1c-2.1 0-4.2 0.8-6 2.1l-8.6 6.9c-0.4 0.4 0 0.8 0.4 0.8h52.4c4.3-0.1 8.1 3 8.1 7.5v57.1c0 0.5 0.7 0.8 0.9 0.1l24-66.8c0.6-3.1-0.8-6.9-5-7.6z"></path><path class="cls-1" d="m111.5 44.8h-65c-3.9 0-8.1 2.9-9.6 7.2l-20.4 65.6c-1 3.5 1.1 8.8 6.8 8.7h85.7c4.8 0.1 9.2-3.8 9.2-8.7l-0.1-66.4c0-3.5-2.5-6.4-6.6-6.4z"></path><path class="cls-2" d="m38.4 92.8 14.7-8.8c0.3-0.2 0.3-0.4 0.1-0.5l-9.6-7.2c-0.5-0.4-0.7-1-0.1-2.7l1-3.4c0.5-0.9 1.6-1.6 2.7-0.7l14.8 11.3c0.7 0.5 0.7 1.4 0.5 2.1l-0.8 2.7c-0.1 0.5-0.5 1-0.9 1.2l-22.5 12.9c-1.1 0.7-2.8 0.1-2.4-1.3l1.5-4.6c0.2-0.4 0.5-0.8 1-1z"></path><path class="cls-2" d="m61.4 101.4-1 3.3c-0.3 1 0.4 1.7 1.3 1.7h23.4c0.9 0 1.7-0.5 1.9-1.2l1-3.7c0.2-0.8-0.2-1.7-1.1-1.7h-23.9c-0.9 0-1.5 0.7-1.8 1.3l0.2 0.3z"></path></svg></g></g><defs><clipPath id="SvgjsClipPath1179"><rect width="1000" height="1000" x="0" y="0" rx="100" ry="100"></rect></clipPath></defs></svg>