<svg xmlns="http://www.w3.org/2000/svg" viewBox="11 26 140 105" role="img" aria-label="MonTerminal">
  <path fill="#f8f8fa" d="m142 31.1c-.4-.1-.8-.1-1.1-.1H75.8c-2.1 0-4.2.8-6 2.1l-8.6 6.9c-.4.4 0 .8.4.8H114c4.3-.1 8.1 3 8.1 7.5v57.1c0 .5.7.8.9.1l24-66.8c.6-3.1-.8-6.9-5-7.6Z"/>
  <path fill="#f8f8fa" d="M111.5 44.8h-65c-3.9 0-8.1 2.9-9.6 7.2l-20.4 65.6c-1 3.5 1.1 8.8 6.8 8.7H109c4.8.1 9.2-3.8 9.2-8.7l-.1-66.4c0-3.5-2.5-6.4-6.6-6.4Z"/>
  <path fill="#7c6ff0" d="m38.4 92.8 14.7-8.8c.3-.2.3-.4.1-.5l-9.6-7.2c-.5-.4-.7-1-.1-2.7l1-3.4c.5-.9 1.6-1.6 2.7-.7L62 80.8c.7.5.7 1.4.5 2.1l-.8 2.7c-.1.5-.5 1-.9 1.2L38.3 99.7c-1.1.7-2.8.1-2.4-1.3l1.5-4.6c.2-.4.5-.8 1-1Z"/>
  <path fill="#7c6ff0" d="m61.4 101.4-1 3.3c-.3 1 .4 1.7 1.3 1.7h23.4c.9 0 1.7-.5 1.9-1.2l1-3.7c.2-.8-.2-1.7-1.1-1.7H63c-.9 0-1.5.7-1.8 1.3l.2.3Z"/>
</svg>
