<svg xmlns="http://www.w3.org/2000/svg" viewBox="0 0 960 540" role="img" aria-label="Portfolio tutorial video placeholder">
  <defs><linearGradient id="bg" x1="0" y1="0" x2="1" y2="1"><stop stop-color="#171924"/><stop offset="1" stop-color="#0b0c11"/></linearGradient><linearGradient id="chart" x1="0" y1="0" x2="1" y2="0"><stop stop-color="#7c6ff0"/><stop offset="1" stop-color="#77c7af"/></linearGradient></defs>
  <rect width="960" height="540" rx="22" fill="url(#bg)"/><text x="38" y="52" fill="#f4f5f8" font-family="system-ui" font-size="18" font-weight="750">Portfolio</text><text x="38" y="92" fill="#7b8090" font-family="system-ui" font-size="12">TOTAL VALUE</text><text x="38" y="132" fill="#f4f5f8" font-family="system-ui" font-size="34" font-weight="780">$0.41</text><text x="159" y="130" fill="#77c7af" font-family="system-ui" font-size="13" font-weight="700">+2.8% 24H</text>
  <rect x="32" y="158" width="574" height="228" rx="13" fill="#11131a" stroke="#2a2d39"/><path d="M56 340 C108 310 140 323 185 280 S271 296 317 233 S406 257 451 205 S523 212 580 181" fill="none" stroke="url(#chart)" stroke-width="5"/><path d="M56 340 C108 310 140 323 185 280 S271 296 317 233 S406 257 451 205 S523 212 580 181 V363 H56Z" fill="#7c6ff0" opacity=".09"/><text x="55" y="184" fill="#7b8090" font-family="system-ui" font-size="11">CURRENT HOLDINGS × REAL PRICE HISTORY</text>
  <rect x="624" y="84" width="304" height="302" rx="13" fill="#151720" stroke="#2a2d39"/><text x="648" y="116" fill="#f4f5f8" font-family="system-ui" font-size="14" font-weight="700">Allocation</text><circle cx="733" cy="220" r="67" fill="none" stroke="#252836" stroke-width="30"/><path d="M733 153 A67 67 0 0 1 793 250" fill="none" stroke="#7c6ff0" stroke-width="30"/><path d="M793 250 A67 67 0 0 1 690 272" fill="none" stroke="#77c7af" stroke-width="30"/><path d="M690 272 A67 67 0 0 1 733 153" fill="none" stroke="#e5b86b" stroke-width="30"/><circle cx="733" cy="220" r="38" fill="#151720"/><text x="733" y="225" text-anchor="middle" fill="#f4f5f8" font-family="system-ui" font-size="15" font-weight="700">3 assets</text><circle cx="840" cy="177" r="5" fill="#7c6ff0"/><text x="853" y="181" fill="#aeb2c0" font-family="system-ui" font-size="11">USDC</text><circle cx="840" cy="207" r="5" fill="#77c7af"/><text x="853" y="211" fill="#aeb2c0" font-family="system-ui" font-size="11">MON</text><circle cx="840" cy="237" r="5" fill="#e5b86b"/><text x="853" y="241" fill="#aeb2c0" font-family="system-ui" font-size="11">CHOG</text>
  <rect x="32" y="408" width="896" height="103" rx="13" fill="#11131a" stroke="#2a2d39"/><text x="55" y="438" fill="#9faaf0" font-family="system-ui" font-size="13" font-weight="700">TUTORIAL 3 · PORTFOLIO</text><text x="55" y="469" fill="#f4f5f8" font-family="system-ui" font-size="23" font-weight="750">Video placeholder</text><text x="55" y="493" fill="#aeb2c0" font-family="system-ui" font-size="14">Balances → allocation → chart → activity</text><circle cx="871" cy="459" r="27" fill="#7c6ff0"/><path d="m864 446 20 13-20 13Z" fill="white"/>
</svg>
