<svg xmlns="http://www.w3.org/2000/svg" viewBox="0 0 960 540" role="img" aria-label="Swap and bridge tutorial video placeholder">
  <defs><linearGradient id="bg" x1="0" y1="0" x2="1" y2="1"><stop stop-color="#171924"/><stop offset="1" stop-color="#0b0c11"/></linearGradient><linearGradient id="route" x1="0" y1="0" x2="1" y2="0"><stop stop-color="#9faaf0"/><stop offset="1" stop-color="#77c7af"/></linearGradient></defs>
  <rect width="960" height="540" rx="22" fill="url(#bg)"/><text x="42" y="54" fill="#f4f5f8" font-family="system-ui" font-size="18" font-weight="750">Swap · Bridge</text>
  <rect x="74" y="104" width="310" height="252" rx="18" fill="#151720" stroke="#2a2d39"/><text x="100" y="139" fill="#7b8090" font-family="system-ui" font-size="12">FROM · MONAD</text><circle cx="118" cy="194" r="34" fill="#7c6ff0"/><path d="m102 197 16-30 16 30-16 25Z" fill="white" opacity=".95"/><text x="169" y="193" fill="#f4f5f8" font-family="system-ui" font-size="21" font-weight="750">2.00 MON</text><text x="169" y="216" fill="#aeb2c0" font-family="system-ui" font-size="12">Origin balance and gas checked</text><rect x="100" y="266" width="258" height="54" rx="10" fill="#0d0f15"/><text x="119" y="289" fill="#7b8090" font-family="system-ui" font-size="11">Route details</text><text x="119" y="309" fill="#f4f5f8" font-family="system-ui" font-size="13">Fee · impact · minimum received</text>
  <path d="M403 228 H557" stroke="url(#route)" stroke-width="7" stroke-linecap="round"/><path d="m541 211 22 17-22 17" fill="none" stroke="#77c7af" stroke-width="7" stroke-linecap="round" stroke-linejoin="round"/><circle cx="480" cy="228" r="24" fill="#20232f" stroke="#9faaf0"/><path d="M469 228h22M482 218l10 10-10 10" fill="none" stroke="#f4f5f8" stroke-width="3" stroke-linecap="round"/>
  <rect x="576" y="104" width="310" height="252" rx="18" fill="#151720" stroke="#2a2d39"/><text x="602" y="139" fill="#7b8090" font-family="system-ui" font-size="12">TO · BASE</text><circle cx="620" cy="194" r="34" fill="#3154d8"/><circle cx="620" cy="194" r="20" fill="none" stroke="white" stroke-width="5"/><text x="671" y="193" fill="#f4f5f8" font-family="system-ui" font-size="21" font-weight="750">USDC</text><text x="671" y="216" fill="#aeb2c0" font-family="system-ui" font-size="12">Destination fill tracked</text><rect x="602" y="266" width="258" height="54" rx="10" fill="#0d0f15"/><text x="621" y="289" fill="#77c7af" font-family="system-ui" font-size="11" font-weight="700">STATUS · FILLED</text><text x="621" y="309" fill="#f4f5f8" font-family="system-ui" font-size="13">Destination transaction verified</text>
  <rect x="74" y="387" width="812" height="108" rx="14" fill="#11131a" stroke="#2a2d39"/><text x="100" y="419" fill="#9faaf0" font-family="system-ui" font-size="13" font-weight="700">TUTORIAL 2 · SWAP &amp; BRIDGE</text><text x="100" y="452" fill="#f4f5f8" font-family="system-ui" font-size="23" font-weight="750">Video placeholder</text><text x="100" y="478" fill="#aeb2c0" font-family="system-ui" font-size="14">Quote → review fees → sign → follow fill</text><circle cx="829" cy="441" r="27" fill="#7c6ff0"/><path d="m822 428 20 13-20 13Z" fill="white"/>
</svg>
